<svg width="400" height="300" xmlns="http://www.w3.org/2000/svg">
  <!-- Background -->
  <rect width="400" height="300" fill="#000000"/>
  
  <!-- Stars -->
  <circle cx="50" cy="50" r="2" fill="#FFFFFF"/>
  <circle cx="120" cy="30" r="2" fill="#FFFFFF"/>
  <circle cx="350" cy="60" r="2" fill="#FFFFFF"/>
  <circle cx="80" cy="80" r="2" fill="#FFFFFF"/>
  <circle cx="320" cy="40" r="2" fill="#FFFFFF"/>
  
  <!-- Space Invaders - Row 1 -->
  <g transform="translate(80, 100)">
    <rect x="5" y="0" width="5" height="5" fill="#0E4C92"/>
    <rect x="15" y="0" width="5" height="5" fill="#0E4C92"/>
    <rect x="0" y="5" width="25" height="5" fill="#0E4C92"/>
    <rect x="0" y="10" width="5" height="5" fill="#0E4C92"/>
    <rect x="10" y="10" width="5" height="5" fill="#0E4C92"/>
    <rect x="20" y="10" width="5" height="5" fill="#0E4C92"/>
  </g>
  
  <g transform="translate(130, 100)">
    <rect x="5" y="0" width="5" height="5" fill="#0E4C92"/>
    <rect x="15" y="0" width="5" height="5" fill="#0E4C92"/>
    <rect x="0" y="5" width="25" height="5" fill="#0E4C92"/>
    <rect x="0" y="10" width="5" height="5" fill="#0E4C92"/>
    <rect x="10" y="10" width="5" height="5" fill="#0E4C92"/>
    <rect x="20" y="10" width="5" height="5" fill="#0E4C92"/>
  </g>
  
  <g transform="translate(180, 100)">
    <rect x="5" y="0" width="5" height="5" fill="#0E4C92"/>
    <rect x="15" y="0" width="5" height="5" fill="#0E4C92"/>
    <rect x="0" y="5" width="25" height="5" fill="#0E4C92"/>
    <rect x="0" y="10" width="5" height="5" fill="#0E4C92"/>
    <rect x="10" y="10" width="5" height="5" fill="#0E4C92"/>
    <rect x="20" y="10" width="5" height="5" fill="#0E4C92"/>
  </g>
  
  <!-- Space Invaders - Row 2 -->
  <g transform="translate(105, 130)">
    <rect x="5" y="0" width="5" height="5" fill="#FF4F00"/>
    <rect x="15" y="0" width="5" height="5" fill="#FF4F00"/>
    <rect x="0" y="5" width="25" height="5" fill="#FF4F00"/>
    <rect x="0" y="10" width="5" height="5" fill="#FF4F00"/>
    <rect x="10" y="10" width="5" height="5" fill="#FF4F00"/>
    <rect x="20" y="10" width="5" height="5" fill="#FF4F00"/>
  </g>
  
  <g transform="translate(155, 130)">
    <rect x="5" y="0" width="5" height="5" fill="#FF4F00"/>
    <rect x="15" y="0" width="5" height="5" fill="#FF4F00"/>
    <rect x="0" y="5" width="25" height="5" fill="#FF4F00"/>
    <rect x="0" y="10" width="5" height="5" fill="#FF4F00"/>
    <rect x="10" y="10" width="5" height="5" fill="#FF4F00"/>
    <rect x="20" y="10" width="5" height="5" fill="#FF4F00"/>
  </g>
  
  <!-- Player Ship -->
  <g transform="translate(185, 240)">
    <rect x="10" y="0" width="10" height="5" fill="#00FF00"/>
    <rect x="5" y="5" width="20" height="5" fill="#00FF00"/>
    <rect x="0" y="10" width="30" height="5" fill="#00FF00"/>
  </g>
  
  <!-- Laser -->
  <rect x="198" y="200" width="4" height="30" fill="#00FF00"/>
  
  <!-- Title -->
  <text x="200" y="40" font-family="Arial, sans-serif" font-size="24" font-weight="bold" fill="#FF4F00" text-anchor="middle">SPACE INVADERS</text>
  <text x="200" y="65" font-family="Arial, sans-serif" font-size="14" fill="#FFFFFF" text-anchor="middle">OpenGL • Classic Arcade</text>
  
  <!-- Bottom Label -->
  <rect x="150" y="270" width="100" height="20" fill="#0E4C92"/>
  <text x="200" y="284" font-family="Arial, sans-serif" font-size="12" font-weight="bold" fill="#FFFFFF" text-anchor="middle">RETRO GAME</text>
</svg>
